<?xml version="1.0" encoding="utf-8"?>
<!-- Generator: Adobe Illustrator 27.0.1, SVG Export Plug-In . SVG Version: 6.00 Build 0)  -->
<svg version="1.1" id="Layer_1" xmlns="http://www.w3.org/2000/svg" xmlns:xlink="http://www.w3.org/1999/xlink" x="0px" y="0px"
	 viewBox="0 0 1792 1792" style="enable-background:new 0 0 1792 1792;" xml:space="preserve">
<style type="text/css">
	.st0{fill:#FFFFFF;}
</style>
<path class="st0" d="M1191.8,851.1c-5.3-2.5-10.7-5-16.2-7.3c-9.5-175.2-105.2-275.5-265.9-276.5C817,566.7,734,604.5,682.3,683
	l88.4,60.6c36.8-55.8,94.5-67.7,137-67.7h1.4c52.9,0.3,92.9,15.7,118.7,45.7c18.8,21.9,31.4,52.1,37.6,90.2
	c-46.9-8-97.7-10.4-151.9-7.3c-152.8,8.8-251,97.9-244.4,221.7c3.3,62.8,34.6,116.9,88.1,152.2c45.2,29.8,103.5,44.4,163.9,41.1
	c79.9-4.3,142.6-34.8,186.4-90.6c33.2-42.3,54.2-97.2,63.5-166.3c38.1,23,66.3,53.2,81.9,89.6c26.5,61.8,28,163.4-54.8,246.2
	c-72.6,72.6-159.9,103.9-291.8,104.9c-146.3-1.1-257-48-328.9-139.5c-67.4-85.6-102.2-209.3-103.5-367.7
	c1.3-158.3,36.1-282,103.5-367.7C649.3,437,759.9,390.1,906.3,389c147.4,1.1,259.9,48.2,334.7,140.1
	c36.6,45.1,64.2,101.8,82.4,167.8l103.6-27.6c-22.1-81.3-56.8-151.4-104-209.6c-95.8-117.8-235.8-178.2-416.3-179.4h-0.7
	c-180.1,1.3-318.6,61.9-411.6,180.1c-82.8,105.2-125.5,251.7-126.9,435.3v0.9c1.4,183.6,44.1,330,126.9,435.3
	c93,118.3,231.5,178.9,411.6,180.1h0.7c160.1-1.1,273-43,366-135.9c121.6-121.5,118-273.8,77.9-367.4
	C1321.7,941.6,1266.9,887.1,1191.8,851.1L1191.8,851.1z M915.4,1111.1c-66.9,3.8-136.5-26.3-140-90.7c-2.5-47.7,34-101,144.1-107.4
	c12.6-0.7,25-1.1,37.1-1.1c40,0,77.4,3.9,111.4,11.3C1055.4,1081.7,981,1107.5,915.4,1111.1L915.4,1111.1z"/>
</svg>
